<mxfile host="app.diagrams.net" agent="Mozilla/5.0 (Windows NT 10.0; Win64; x64) AppleWebKit/537.36 (KHTML, like Gecko) Chrome/132.0.0.0 Safari/537.36" version="26.0.11">
  <diagram id="C5RBs43oDa-KdzZeNtuy" name="Page-1">
    <mxGraphModel dx="2390" dy="1443" grid="1" gridSize="10" guides="1" tooltips="1" connect="1" arrows="1" fold="1" page="1" pageScale="1" pageWidth="827" pageHeight="1169" math="0" shadow="0">
      <root>
        <mxCell id="WIyWlLk6GJQsqaUBKTNV-0" />
        <mxCell id="WIyWlLk6GJQsqaUBKTNV-1" parent="WIyWlLk6GJQsqaUBKTNV-0" />
        <mxCell id="xrUn3R5pLlvb6Np3E3rJ-7" value="" style="rounded=0;html=1;jettySize=auto;orthogonalLoop=1;fontSize=11;endArrow=block;endFill=0;endSize=8;strokeWidth=1;shadow=0;labelBackgroundColor=none;edgeStyle=orthogonalEdgeStyle;entryX=0.5;entryY=0;entryDx=0;entryDy=0;" edge="1" parent="WIyWlLk6GJQsqaUBKTNV-1" source="xrUn3R5pLlvb6Np3E3rJ-8" target="xrUn3R5pLlvb6Np3E3rJ-28">
          <mxGeometry relative="1" as="geometry">
            <mxPoint x="250" y="200" as="targetPoint" />
          </mxGeometry>
        </mxCell>
        <mxCell id="xrUn3R5pLlvb6Np3E3rJ-8" value="Vedi Sezione amici" style="rounded=1;whiteSpace=wrap;html=1;fontSize=12;glass=0;strokeWidth=1;shadow=0;" vertex="1" parent="WIyWlLk6GJQsqaUBKTNV-1">
          <mxGeometry x="136" y="120" width="120" height="40" as="geometry" />
        </mxCell>
        <mxCell id="xrUn3R5pLlvb6Np3E3rJ-12" value="" style="ellipse;shape=doubleEllipse;html=1;dashed=0;whiteSpace=wrap;aspect=fixed;" vertex="1" parent="WIyWlLk6GJQsqaUBKTNV-1">
          <mxGeometry x="176" y="40" width="40" height="40" as="geometry" />
        </mxCell>
        <mxCell id="xrUn3R5pLlvb6Np3E3rJ-13" value="" style="rounded=0;html=1;jettySize=auto;orthogonalLoop=1;fontSize=11;endArrow=block;endFill=0;endSize=8;strokeWidth=1;shadow=0;labelBackgroundColor=none;edgeStyle=orthogonalEdgeStyle;exitX=0.5;exitY=1;exitDx=0;exitDy=0;" edge="1" parent="WIyWlLk6GJQsqaUBKTNV-1" source="xrUn3R5pLlvb6Np3E3rJ-12" target="xrUn3R5pLlvb6Np3E3rJ-8">
          <mxGeometry relative="1" as="geometry">
            <mxPoint x="229.81" y="80" as="sourcePoint" />
            <mxPoint x="270" y="90" as="targetPoint" />
          </mxGeometry>
        </mxCell>
        <mxCell id="xrUn3R5pLlvb6Np3E3rJ-26" value="No" style="rounded=0;html=1;jettySize=auto;orthogonalLoop=1;fontSize=11;endArrow=block;endFill=0;endSize=8;strokeWidth=1;shadow=0;labelBackgroundColor=none;edgeStyle=orthogonalEdgeStyle;entryX=0.5;entryY=0;entryDx=0;entryDy=0;exitX=0.5;exitY=1;exitDx=0;exitDy=0;" edge="1" parent="WIyWlLk6GJQsqaUBKTNV-1" source="xrUn3R5pLlvb6Np3E3rJ-28" target="xrUn3R5pLlvb6Np3E3rJ-31">
          <mxGeometry x="-0.5062" y="10" relative="1" as="geometry">
            <mxPoint as="offset" />
            <mxPoint x="206" y="420" as="targetPoint" />
          </mxGeometry>
        </mxCell>
        <mxCell id="xrUn3R5pLlvb6Np3E3rJ-27" value="Yes" style="edgeStyle=orthogonalEdgeStyle;rounded=0;html=1;jettySize=auto;orthogonalLoop=1;fontSize=11;endArrow=block;endFill=0;endSize=8;strokeWidth=1;shadow=0;labelBackgroundColor=none;" edge="1" parent="WIyWlLk6GJQsqaUBKTNV-1" source="xrUn3R5pLlvb6Np3E3rJ-28">
          <mxGeometry x="0.206" y="10" relative="1" as="geometry">
            <mxPoint as="offset" />
            <mxPoint x="346" y="250" as="targetPoint" />
          </mxGeometry>
        </mxCell>
        <mxCell id="xrUn3R5pLlvb6Np3E3rJ-28" value="Vuole aggiungere un amico?" style="rhombus;whiteSpace=wrap;html=1;shadow=0;fontFamily=Helvetica;fontSize=12;align=center;strokeWidth=1;spacing=6;spacingTop=-4;" vertex="1" parent="WIyWlLk6GJQsqaUBKTNV-1">
          <mxGeometry x="146" y="210" width="100" height="80" as="geometry" />
        </mxCell>
        <mxCell id="xrUn3R5pLlvb6Np3E3rJ-30" value="No" style="edgeStyle=orthogonalEdgeStyle;rounded=0;html=1;jettySize=auto;orthogonalLoop=1;fontSize=11;endArrow=block;endFill=0;endSize=8;strokeWidth=1;shadow=0;labelBackgroundColor=none;exitX=0.5;exitY=1;exitDx=0;exitDy=0;entryX=0.5;entryY=0;entryDx=0;entryDy=0;" edge="1" parent="WIyWlLk6GJQsqaUBKTNV-1" source="xrUn3R5pLlvb6Np3E3rJ-31" target="xrUn3R5pLlvb6Np3E3rJ-58">
          <mxGeometry y="10" relative="1" as="geometry">
            <mxPoint as="offset" />
            <mxPoint x="206" y="610" as="targetPoint" />
          </mxGeometry>
        </mxCell>
        <mxCell id="xrUn3R5pLlvb6Np3E3rJ-31" value="Vuole &lt;br&gt;rimuovere un amico?" style="rhombus;whiteSpace=wrap;html=1;shadow=0;fontFamily=Helvetica;fontSize=12;align=center;strokeWidth=1;spacing=6;spacingTop=-4;" vertex="1" parent="WIyWlLk6GJQsqaUBKTNV-1">
          <mxGeometry x="146" y="409" width="100" height="80" as="geometry" />
        </mxCell>
        <mxCell id="xrUn3R5pLlvb6Np3E3rJ-32" value="Modificare DB e eliminare amicizia tra i due player" style="rounded=1;whiteSpace=wrap;html=1;fontSize=12;glass=0;strokeWidth=1;shadow=0;" vertex="1" parent="WIyWlLk6GJQsqaUBKTNV-1">
          <mxGeometry x="337" y="429" width="120" height="40" as="geometry" />
        </mxCell>
        <mxCell id="xrUn3R5pLlvb6Np3E3rJ-37" value="Ritorna messaggio&lt;div&gt;&quot;Richiesta mandata con successo&quot;&lt;/div&gt;" style="rounded=1;whiteSpace=wrap;html=1;fontSize=12;glass=0;strokeWidth=1;shadow=0;" vertex="1" parent="WIyWlLk6GJQsqaUBKTNV-1">
          <mxGeometry x="702" y="230" width="120" height="40" as="geometry" />
        </mxCell>
        <mxCell id="xrUn3R5pLlvb6Np3E3rJ-38" value="No" style="rounded=0;html=1;jettySize=auto;orthogonalLoop=1;fontSize=11;endArrow=block;endFill=0;endSize=8;strokeWidth=1;shadow=0;labelBackgroundColor=none;edgeStyle=orthogonalEdgeStyle;exitX=0;exitY=0.495;exitDx=0;exitDy=0;entryX=0;entryY=0.5;entryDx=0;entryDy=0;exitPerimeter=0;" edge="1" parent="WIyWlLk6GJQsqaUBKTNV-1" source="xrUn3R5pLlvb6Np3E3rJ-39" target="xrUn3R5pLlvb6Np3E3rJ-8">
          <mxGeometry x="-0.5062" y="10" relative="1" as="geometry">
            <mxPoint as="offset" />
            <mxPoint x="90" y="300" as="targetPoint" />
            <Array as="points">
              <mxPoint x="70" y="769" />
              <mxPoint x="70" y="140" />
            </Array>
          </mxGeometry>
        </mxCell>
        <mxCell id="xrUn3R5pLlvb6Np3E3rJ-39" value="Chiude &lt;br&gt;sezione &lt;br&gt;amici?" style="rhombus;whiteSpace=wrap;html=1;shadow=0;fontFamily=Helvetica;fontSize=12;align=center;strokeWidth=1;spacing=6;spacingTop=-4;" vertex="1" parent="WIyWlLk6GJQsqaUBKTNV-1">
          <mxGeometry x="146" y="729" width="100" height="80" as="geometry" />
        </mxCell>
        <mxCell id="xrUn3R5pLlvb6Np3E3rJ-42" value="" style="edgeStyle=orthogonalEdgeStyle;rounded=0;html=1;jettySize=auto;orthogonalLoop=1;fontSize=11;endArrow=block;endFill=0;endSize=8;strokeWidth=1;shadow=0;labelBackgroundColor=none;entryX=0.5;entryY=0;entryDx=0;entryDy=0;exitX=0.5;exitY=1;exitDx=0;exitDy=0;" edge="1" parent="WIyWlLk6GJQsqaUBKTNV-1" source="xrUn3R5pLlvb6Np3E3rJ-39" target="xrUn3R5pLlvb6Np3E3rJ-41">
          <mxGeometry y="10" relative="1" as="geometry">
            <mxPoint as="offset" />
            <mxPoint x="230.68" y="811" as="targetPoint" />
            <mxPoint x="240" y="710" as="sourcePoint" />
          </mxGeometry>
        </mxCell>
        <mxCell id="xrUn3R5pLlvb6Np3E3rJ-41" value="" style="ellipse;shape=doubleEllipse;html=1;dashed=0;whiteSpace=wrap;aspect=fixed;fillColor=#000000;fontColor=#333333;strokeColor=#000000;" vertex="1" parent="WIyWlLk6GJQsqaUBKTNV-1">
          <mxGeometry x="176" y="899" width="40" height="40" as="geometry" />
        </mxCell>
        <mxCell id="xrUn3R5pLlvb6Np3E3rJ-43" value="Yes" style="edgeStyle=orthogonalEdgeStyle;rounded=0;html=1;jettySize=auto;orthogonalLoop=1;fontSize=11;endArrow=block;endFill=0;endSize=8;strokeWidth=1;shadow=0;labelBackgroundColor=none;exitX=1;exitY=0.5;exitDx=0;exitDy=0;entryX=0;entryY=0.5;entryDx=0;entryDy=0;" edge="1" parent="WIyWlLk6GJQsqaUBKTNV-1" source="xrUn3R5pLlvb6Np3E3rJ-31" target="xrUn3R5pLlvb6Np3E3rJ-32">
          <mxGeometry y="10" relative="1" as="geometry">
            <mxPoint as="offset" />
            <mxPoint x="416" y="449" as="targetPoint" />
            <mxPoint x="256" y="448.9" as="sourcePoint" />
            <Array as="points" />
          </mxGeometry>
        </mxCell>
        <mxCell id="xrUn3R5pLlvb6Np3E3rJ-44" value="No" style="rounded=0;html=1;jettySize=auto;orthogonalLoop=1;fontSize=11;endArrow=block;endFill=0;endSize=8;strokeWidth=1;shadow=0;labelBackgroundColor=none;edgeStyle=orthogonalEdgeStyle;exitX=0.5;exitY=1;exitDx=0;exitDy=0;" edge="1" parent="WIyWlLk6GJQsqaUBKTNV-1" source="xrUn3R5pLlvb6Np3E3rJ-46">
          <mxGeometry x="-0.5062" y="10" relative="1" as="geometry">
            <mxPoint as="offset" />
            <mxPoint x="396" y="350" as="targetPoint" />
          </mxGeometry>
        </mxCell>
        <mxCell id="xrUn3R5pLlvb6Np3E3rJ-45" value="Yes" style="edgeStyle=orthogonalEdgeStyle;rounded=0;html=1;jettySize=auto;orthogonalLoop=1;fontSize=11;endArrow=block;endFill=0;endSize=8;strokeWidth=1;shadow=0;labelBackgroundColor=none;" edge="1" parent="WIyWlLk6GJQsqaUBKTNV-1" source="xrUn3R5pLlvb6Np3E3rJ-46">
          <mxGeometry x="0.206" y="10" relative="1" as="geometry">
            <mxPoint as="offset" />
            <mxPoint x="546" y="250" as="targetPoint" />
          </mxGeometry>
        </mxCell>
        <mxCell id="xrUn3R5pLlvb6Np3E3rJ-46" value="Codice amico inserito valido?" style="rhombus;whiteSpace=wrap;html=1;shadow=0;fontFamily=Helvetica;fontSize=12;align=center;strokeWidth=1;spacing=6;spacingTop=-4;" vertex="1" parent="WIyWlLk6GJQsqaUBKTNV-1">
          <mxGeometry x="346" y="210" width="100" height="80" as="geometry" />
        </mxCell>
        <mxCell id="xrUn3R5pLlvb6Np3E3rJ-47" value="Modificare DB e inserire la richiesta in sospeso" style="rounded=1;whiteSpace=wrap;html=1;fontSize=12;glass=0;strokeWidth=1;shadow=0;" vertex="1" parent="WIyWlLk6GJQsqaUBKTNV-1">
          <mxGeometry x="546" y="230" width="120" height="40" as="geometry" />
        </mxCell>
        <mxCell id="xrUn3R5pLlvb6Np3E3rJ-49" value="" style="rounded=0;html=1;jettySize=auto;orthogonalLoop=1;fontSize=11;endArrow=block;endFill=0;endSize=8;strokeWidth=1;shadow=0;labelBackgroundColor=none;edgeStyle=orthogonalEdgeStyle;exitX=1;exitY=0.5;exitDx=0;exitDy=0;entryX=0;entryY=0.5;entryDx=0;entryDy=0;" edge="1" parent="WIyWlLk6GJQsqaUBKTNV-1" source="xrUn3R5pLlvb6Np3E3rJ-47" target="xrUn3R5pLlvb6Np3E3rJ-37">
          <mxGeometry relative="1" as="geometry">
            <mxPoint x="686" y="239" as="sourcePoint" />
            <mxPoint x="686" y="290" as="targetPoint" />
          </mxGeometry>
        </mxCell>
        <mxCell id="xrUn3R5pLlvb6Np3E3rJ-50" value="" style="rounded=0;html=1;jettySize=auto;orthogonalLoop=1;fontSize=11;endArrow=block;endFill=0;endSize=8;strokeWidth=1;shadow=0;labelBackgroundColor=none;edgeStyle=orthogonalEdgeStyle;exitX=0.732;exitY=0.992;exitDx=0;exitDy=0;exitPerimeter=0;entryX=0.5;entryY=0;entryDx=0;entryDy=0;" edge="1" parent="WIyWlLk6GJQsqaUBKTNV-1" source="xrUn3R5pLlvb6Np3E3rJ-37" target="xrUn3R5pLlvb6Np3E3rJ-41">
          <mxGeometry relative="1" as="geometry">
            <mxPoint x="250" y="180" as="sourcePoint" />
            <mxPoint x="196" y="930" as="targetPoint" />
            <Array as="points">
              <mxPoint x="790" y="840" />
              <mxPoint x="196" y="840" />
            </Array>
          </mxGeometry>
        </mxCell>
        <mxCell id="xrUn3R5pLlvb6Np3E3rJ-51" value="Ritorna messaggio&lt;div&gt;&quot;Amico rimosso con successo&quot;&lt;/div&gt;" style="rounded=1;whiteSpace=wrap;html=1;fontSize=12;glass=0;strokeWidth=1;shadow=0;" vertex="1" parent="WIyWlLk6GJQsqaUBKTNV-1">
          <mxGeometry x="541" y="429" width="120" height="40" as="geometry" />
        </mxCell>
        <mxCell id="xrUn3R5pLlvb6Np3E3rJ-52" value="Ritorna errore&lt;div&gt;&quot;Codice invalido&quot;&lt;/div&gt;" style="rounded=1;whiteSpace=wrap;html=1;fontSize=12;glass=0;strokeWidth=1;shadow=0;" vertex="1" parent="WIyWlLk6GJQsqaUBKTNV-1">
          <mxGeometry x="336" y="350" width="120" height="40" as="geometry" />
        </mxCell>
        <mxCell id="xrUn3R5pLlvb6Np3E3rJ-53" value="" style="rounded=0;html=1;jettySize=auto;orthogonalLoop=1;fontSize=11;endArrow=block;endFill=0;endSize=8;strokeWidth=1;shadow=0;labelBackgroundColor=none;edgeStyle=orthogonalEdgeStyle;exitX=0;exitY=0.5;exitDx=0;exitDy=0;entryX=0;entryY=0.5;entryDx=0;entryDy=0;" edge="1" parent="WIyWlLk6GJQsqaUBKTNV-1" source="xrUn3R5pLlvb6Np3E3rJ-52" target="xrUn3R5pLlvb6Np3E3rJ-46">
          <mxGeometry relative="1" as="geometry">
            <mxPoint x="676" y="260" as="sourcePoint" />
            <mxPoint x="736" y="260" as="targetPoint" />
          </mxGeometry>
        </mxCell>
        <mxCell id="xrUn3R5pLlvb6Np3E3rJ-54" value="" style="rounded=0;html=1;jettySize=auto;orthogonalLoop=1;fontSize=11;endArrow=block;endFill=0;endSize=8;strokeWidth=1;shadow=0;labelBackgroundColor=none;edgeStyle=orthogonalEdgeStyle;exitX=1;exitY=0.5;exitDx=0;exitDy=0;entryX=0;entryY=0.5;entryDx=0;entryDy=0;" edge="1" parent="WIyWlLk6GJQsqaUBKTNV-1" source="xrUn3R5pLlvb6Np3E3rJ-32" target="xrUn3R5pLlvb6Np3E3rJ-51">
          <mxGeometry relative="1" as="geometry">
            <mxPoint x="536" y="448.64" as="sourcePoint" />
            <mxPoint x="596" y="448.64" as="targetPoint" />
          </mxGeometry>
        </mxCell>
        <mxCell id="xrUn3R5pLlvb6Np3E3rJ-58" value="Ha richieste &lt;br&gt;da accettare?" style="rhombus;whiteSpace=wrap;html=1;shadow=0;fontFamily=Helvetica;fontSize=12;align=center;strokeWidth=1;spacing=6;spacingTop=-4;" vertex="1" parent="WIyWlLk6GJQsqaUBKTNV-1">
          <mxGeometry x="146" y="560" width="100" height="80" as="geometry" />
        </mxCell>
        <mxCell id="xrUn3R5pLlvb6Np3E3rJ-59" value="Yes" style="edgeStyle=orthogonalEdgeStyle;rounded=0;html=1;jettySize=auto;orthogonalLoop=1;fontSize=11;endArrow=block;endFill=0;endSize=8;strokeWidth=1;shadow=0;labelBackgroundColor=none;exitX=1;exitY=0.5;exitDx=0;exitDy=0;entryX=0;entryY=0.5;entryDx=0;entryDy=0;" edge="1" parent="WIyWlLk6GJQsqaUBKTNV-1" source="xrUn3R5pLlvb6Np3E3rJ-58">
          <mxGeometry y="10" relative="1" as="geometry">
            <mxPoint as="offset" />
            <mxPoint x="337" y="600" as="targetPoint" />
            <mxPoint x="256" y="599.9" as="sourcePoint" />
            <Array as="points" />
          </mxGeometry>
        </mxCell>
        <mxCell id="xrUn3R5pLlvb6Np3E3rJ-60" value="No" style="edgeStyle=orthogonalEdgeStyle;rounded=0;html=1;jettySize=auto;orthogonalLoop=1;fontSize=11;endArrow=block;endFill=0;endSize=8;strokeWidth=1;shadow=0;labelBackgroundColor=none;exitX=0.5;exitY=1;exitDx=0;exitDy=0;entryX=0.5;entryY=0;entryDx=0;entryDy=0;" edge="1" parent="WIyWlLk6GJQsqaUBKTNV-1" source="xrUn3R5pLlvb6Np3E3rJ-58" target="xrUn3R5pLlvb6Np3E3rJ-39">
          <mxGeometry y="10" relative="1" as="geometry">
            <mxPoint as="offset" />
            <mxPoint x="196" y="660" as="targetPoint" />
            <mxPoint x="236" y="640" as="sourcePoint" />
          </mxGeometry>
        </mxCell>
        <mxCell id="xrUn3R5pLlvb6Np3E3rJ-61" value="Accetta?" style="rhombus;whiteSpace=wrap;html=1;shadow=0;fontFamily=Helvetica;fontSize=12;align=center;strokeWidth=1;spacing=6;spacingTop=-4;" vertex="1" parent="WIyWlLk6GJQsqaUBKTNV-1">
          <mxGeometry x="336" y="560" width="100" height="80" as="geometry" />
        </mxCell>
        <mxCell id="xrUn3R5pLlvb6Np3E3rJ-62" value="Modificare DB e rimuovere la richiesta in sospeso" style="rounded=1;whiteSpace=wrap;html=1;fontSize=12;glass=0;strokeWidth=1;shadow=0;" vertex="1" parent="WIyWlLk6GJQsqaUBKTNV-1">
          <mxGeometry x="326" y="683" width="120" height="40" as="geometry" />
        </mxCell>
        <mxCell id="xrUn3R5pLlvb6Np3E3rJ-63" value="Modificare DB e rimuovere la richiesta in sospeso" style="rounded=1;whiteSpace=wrap;html=1;fontSize=12;glass=0;strokeWidth=1;shadow=0;" vertex="1" parent="WIyWlLk6GJQsqaUBKTNV-1">
          <mxGeometry x="484" y="580" width="120" height="40" as="geometry" />
        </mxCell>
        <mxCell id="xrUn3R5pLlvb6Np3E3rJ-64" value="No" style="edgeStyle=orthogonalEdgeStyle;rounded=0;html=1;jettySize=auto;orthogonalLoop=1;fontSize=11;endArrow=block;endFill=0;endSize=8;strokeWidth=1;shadow=0;labelBackgroundColor=none;exitX=0.5;exitY=1;exitDx=0;exitDy=0;" edge="1" parent="WIyWlLk6GJQsqaUBKTNV-1" source="xrUn3R5pLlvb6Np3E3rJ-61" target="xrUn3R5pLlvb6Np3E3rJ-62">
          <mxGeometry y="10" relative="1" as="geometry">
            <mxPoint as="offset" />
            <mxPoint x="206" y="570" as="targetPoint" />
            <mxPoint x="206" y="499" as="sourcePoint" />
          </mxGeometry>
        </mxCell>
        <mxCell id="xrUn3R5pLlvb6Np3E3rJ-65" value="Yes" style="edgeStyle=orthogonalEdgeStyle;rounded=0;html=1;jettySize=auto;orthogonalLoop=1;fontSize=11;endArrow=block;endFill=0;endSize=8;strokeWidth=1;shadow=0;labelBackgroundColor=none;exitX=1;exitY=0.5;exitDx=0;exitDy=0;entryX=0;entryY=0.5;entryDx=0;entryDy=0;" edge="1" parent="WIyWlLk6GJQsqaUBKTNV-1" source="xrUn3R5pLlvb6Np3E3rJ-61" target="xrUn3R5pLlvb6Np3E3rJ-63">
          <mxGeometry y="10" relative="1" as="geometry">
            <mxPoint as="offset" />
            <mxPoint x="347" y="610" as="targetPoint" />
            <mxPoint x="256" y="610" as="sourcePoint" />
            <Array as="points" />
          </mxGeometry>
        </mxCell>
        <mxCell id="xrUn3R5pLlvb6Np3E3rJ-66" value="" style="endArrow=none;html=1;rounded=0;exitX=1;exitY=0.5;exitDx=0;exitDy=0;" edge="1" parent="WIyWlLk6GJQsqaUBKTNV-1" source="xrUn3R5pLlvb6Np3E3rJ-68">
          <mxGeometry width="50" height="50" relative="1" as="geometry">
            <mxPoint x="586" y="750" as="sourcePoint" />
            <mxPoint x="790" y="703" as="targetPoint" />
          </mxGeometry>
        </mxCell>
        <mxCell id="xrUn3R5pLlvb6Np3E3rJ-67" value="" style="endArrow=none;html=1;rounded=0;exitX=1;exitY=0.5;exitDx=0;exitDy=0;" edge="1" parent="WIyWlLk6GJQsqaUBKTNV-1" source="xrUn3R5pLlvb6Np3E3rJ-63">
          <mxGeometry width="50" height="50" relative="1" as="geometry">
            <mxPoint x="456" y="713" as="sourcePoint" />
            <mxPoint x="790" y="600" as="targetPoint" />
          </mxGeometry>
        </mxCell>
        <mxCell id="xrUn3R5pLlvb6Np3E3rJ-69" value="" style="endArrow=none;html=1;rounded=0;exitX=1;exitY=0.5;exitDx=0;exitDy=0;" edge="1" parent="WIyWlLk6GJQsqaUBKTNV-1" source="xrUn3R5pLlvb6Np3E3rJ-62" target="xrUn3R5pLlvb6Np3E3rJ-68">
          <mxGeometry width="50" height="50" relative="1" as="geometry">
            <mxPoint x="446" y="703" as="sourcePoint" />
            <mxPoint x="786" y="703" as="targetPoint" />
          </mxGeometry>
        </mxCell>
        <mxCell id="xrUn3R5pLlvb6Np3E3rJ-68" value="Ritorna messaggio&lt;div&gt;&quot;Richiesta rifiutata con successo&quot;&lt;/div&gt;" style="rounded=1;whiteSpace=wrap;html=1;fontSize=12;glass=0;strokeWidth=1;shadow=0;" vertex="1" parent="WIyWlLk6GJQsqaUBKTNV-1">
          <mxGeometry x="556" y="683" width="120" height="40" as="geometry" />
        </mxCell>
        <mxCell id="xrUn3R5pLlvb6Np3E3rJ-70" value="Ritorna messaggio&lt;div&gt;&quot;Richiesta accettata con successo&quot;&lt;/div&gt;" style="rounded=1;whiteSpace=wrap;html=1;fontSize=12;glass=0;strokeWidth=1;shadow=0;" vertex="1" parent="WIyWlLk6GJQsqaUBKTNV-1">
          <mxGeometry x="646" y="580" width="120" height="40" as="geometry" />
        </mxCell>
        <mxCell id="xrUn3R5pLlvb6Np3E3rJ-71" value="" style="endArrow=none;html=1;rounded=0;exitX=1;exitY=0.5;exitDx=0;exitDy=0;" edge="1" parent="WIyWlLk6GJQsqaUBKTNV-1" source="xrUn3R5pLlvb6Np3E3rJ-51">
          <mxGeometry width="50" height="50" relative="1" as="geometry">
            <mxPoint x="670" y="450" as="sourcePoint" />
            <mxPoint x="790" y="449" as="targetPoint" />
          </mxGeometry>
        </mxCell>
      </root>
    </mxGraphModel>
  </diagram>
</mxfile>
